<svg width="378" height="475" viewBox="0 0 378 475" fill="none" xmlns="http://www.w3.org/2000/svg">
<path d="M120.784 302H91.9773L175.295 75.0909H203.659L286.977 302H258.17L190.364 110.989H188.591L120.784 302ZM131.42 213.364H247.534V237.739H131.42V213.364Z" fill="#533696"/>
<path d="M175.932 399V228.818H202.08V399H175.932ZM189.227 200.455C184.131 200.455 179.736 198.719 176.043 195.247C172.423 191.776 170.614 187.602 170.614 182.727C170.614 177.852 172.423 173.679 176.043 170.207C179.736 166.736 184.131 165 189.227 165C194.324 165 198.682 166.736 202.301 170.207C205.994 173.679 207.841 177.852 207.841 182.727C207.841 187.602 205.994 191.776 202.301 195.247C198.682 198.719 194.324 200.455 189.227 200.455Z" fill="black"/>
<path d="M302 182.5V252.523L75.0909 252.523L75.0909 179.398C75.0909 157.386 79.6335 138.551 88.7188 122.892C97.7301 107.233 110.693 95.2301 127.608 86.8835C144.449 78.5369 164.614 74.3636 188.102 74.3636C211.739 74.3636 232.088 78.5739 249.151 86.9943C266.139 95.4148 279.213 107.676 288.372 123.778C297.457 139.881 302 159.455 302 182.5ZM277.625 225.045V184.273C277.625 165.511 274.006 149.963 266.767 137.628C259.528 125.293 249.224 116.097 235.855 110.04C222.486 103.983 206.568 100.955 188.102 100.955C169.784 100.955 154.014 103.946 140.793 109.929C127.497 115.912 117.304 124.849 110.213 136.741C103.048 148.634 99.4659 163.443 99.4659 181.17V225.045L277.625 225.045Z" fill="black"/>
</svg>
