<?xml version="1.0" standalone="no"?>
<!DOCTYPE svg PUBLIC "-//W3C//DTD SVG 20010904//EN"
 "http://www.w3.org/TR/2001/REC-SVG-20010904/DTD/svg10.dtd">
<svg version="1.0" xmlns="http://www.w3.org/2000/svg"
 width="100.000000pt" height="100.000000pt" viewBox="0 0 100.000000 100.000000"
 preserveAspectRatio="xMidYMid meet">

<g transform="translate(0.000000,100.000000) scale(0.100000,-0.100000)"
fill="#000000" stroke="none">
<path d="M433 919 c-24 -12 -52 -37 -65 -57 -22 -35 -23 -46 -23 -237 0 -191
1 -202 23 -237 24 -39 91 -78 133 -78 44 1 105 36 130 76 23 38 24 45 24 239
0 194 -1 201 -24 239 -25 40 -86 75 -131 76 -14 0 -44 -9 -67 -21z"/>
<path d="M197 524 c-12 -13 -8 -70 10 -125 13 -41 32 -69 79 -116 52 -53 71
-65 123 -79 60 -17 62 -19 59 -48 l-3 -31 -72 -3 c-74 -3 -97 -18 -72 -48 17
-20 341 -20 358 0 25 30 2 45 -72 48 -72 3 -72 3 -75 33 -3 29 0 31 55 47 132
39 231 167 221 286 -2 29 -8 38 -25 40 -23 3 -26 -4 -38 -73 -24 -146 -184
-240 -323 -191 -90 32 -146 99 -166 200 -10 48 -17 62 -32 64 -11 2 -23 0 -27
-4z"/>
</g>
</svg>
