<?xml version="1.0" standalone="no"?>
<!DOCTYPE svg PUBLIC "-//W3C//DTD SVG 20010904//EN"
 "http://www.w3.org/TR/2001/REC-SVG-20010904/DTD/svg10.dtd">
<svg version="1.0" xmlns="http://www.w3.org/2000/svg"
 width="100.000000pt" height="100.000000pt" viewBox="0 0 100.000000 100.000000"
 preserveAspectRatio="xMidYMid meet">

<g transform="translate(0.000000,100.000000) scale(0.100000,-0.100000)"
fill="#000000" stroke="none">
<path d="M100 919 c-10 -18 -1 -31 83 -117 l95 -97 4 -101 c3 -90 7 -106 31
-142 15 -23 45 -51 67 -62 47 -24 128 -27 169 -5 27 13 30 13 51 -10 l23 -25
-49 -22 c-72 -33 -154 -30 -223 7 -79 43 -115 98 -130 195 -5 39 -9 45 -31 45
-24 0 -25 -3 -25 -55 1 -123 109 -246 243 -275 l33 -7 -3 -61 -3 -62 -73 -3
c-77 -3 -97 -17 -72 -47 10 -12 44 -15 181 -15 150 0 169 2 177 17 18 35 4 43
-74 43 l-74 0 0 64 0 65 53 15 c28 9 66 24 82 35 l30 18 102 -99 c91 -89 104
-98 122 -88 12 6 21 16 21 23 0 16 -771 787 -787 787 -7 0 -17 -9 -23 -21z"/>
<path d="M420 928 c-41 -11 -100 -54 -100 -71 0 -7 74 -86 164 -176 191 -191
182 -191 174 2 -4 89 -9 121 -26 154 -37 71 -135 113 -212 91z"/>
<path d="M729 588 c0 -2 -7 -30 -14 -63 -12 -57 -12 -61 8 -83 l21 -23 15 28
c7 15 14 52 15 83 1 50 -1 55 -21 58 -13 2 -23 2 -24 0z"/>
</g>
</svg>
