<?xml version="1.0" standalone="no"?>
<!DOCTYPE svg PUBLIC "-//W3C//DTD SVG 20010904//EN"
 "http://www.w3.org/TR/2001/REC-SVG-20010904/DTD/svg10.dtd">
<svg version="1.0" xmlns="http://www.w3.org/2000/svg"
 width="200.000000pt" height="200.000000pt" viewBox="0 0 200.000000 200.000000"
 preserveAspectRatio="xMidYMid meet">

<g transform="translate(0.000000,200.000000) scale(0.100000,-0.100000)"
fill="#000000" stroke="none">
<path d="M806 1873 c-14 -147 -8 -136 -95 -171 -42 -18 -80 -32 -83 -32 -4 0
-39 27 -78 60 -39 33 -75 60 -79 60 -3 0 -65 -58 -136 -130 l-129 -130 19 -24
c11 -14 40 -50 63 -80 l44 -55 -33 -80 c-36 -89 -27 -84 -166 -97 l-73 -7 0
-187 0 -187 73 -7 c139 -13 130 -8 166 -97 l33 -80 -44 -55 c-23 -30 -52 -66
-63 -80 l-19 -24 129 -130 c71 -72 133 -130 136 -130 4 0 40 27 79 60 39 33
74 60 78 60 3 0 41 -14 83 -32 87 -35 81 -24 95 -170 l6 -68 188 0 188 0 6 67
c14 148 7 136 98 172 79 33 80 33 104 15 13 -11 49 -39 79 -63 l56 -45 132
132 131 131 -19 25 c-11 14 -40 50 -63 80 l-44 55 33 80 c36 89 24 83 172 97
l67 6 0 188 0 188 -67 6 c-148 14 -136 8 -172 97 l-33 80 44 55 c23 30 52 66
63 80 l19 25 -131 131 -132 132 -56 -45 c-30 -24 -66 -52 -79 -63 -24 -18 -25
-18 -104 15 -91 36 -84 24 -98 172 l-6 67 -188 0 -188 0 -6 -67z m332 -515
c240 -89 322 -394 160 -599 -129 -163 -372 -189 -539 -57 -92 73 -141 178
-141 301 1 270 264 449 520 355z"/>
<path d="M930 1251 c-46 -15 -85 -39 -116 -73 -54 -57 -69 -95 -69 -178 0 -83
15 -121 69 -178 53 -57 101 -77 186 -77 57 0 84 5 115 22 47 25 95 74 121 123
26 49 26 171 0 220 -26 49 -74 98 -121 122 -43 22 -144 33 -185 19z"/>
</g>
</svg>
