<?xml version="1.0" standalone="no"?>
<!DOCTYPE svg PUBLIC "-//W3C//DTD SVG 20010904//EN"
 "http://www.w3.org/TR/2001/REC-SVG-20010904/DTD/svg10.dtd">
<svg version="1.0" xmlns="http://www.w3.org/2000/svg"
 width="1600.000000pt" height="1600.000000pt" viewBox="0 0 1600.000000 1600.000000"
 preserveAspectRatio="xMidYMid meet">

<g transform="translate(0.000000,1600.000000) scale(0.100000,-0.100000)"
fill="#000000" stroke="none">
<path d="M7590 15990 c-313 -18 -650 -55 -922 -101 -2022 -339 -3839 -1449
-5079 -3105 -1233 -1647 -1779 -3707 -1529 -5764 67 -546 210 -1165 380 -1640
l39 -111 -59 -107 c-206 -376 -346 -828 -402 -1297 -16 -139 -16 -595 0 -730
72 -593 256 -1102 568 -1570 126 -189 242 -333 404 -499 216 -222 418 -386
659 -534 120 -75 331 -192 345 -192 3 0 6 1422 6 3160 0 1738 -3 3160 -6 3160
-13 0 -220 -114 -324 -178 -170 -105 -334 -225 -474 -349 -27 -24 -50 -42 -52
-40 -6 5 -53 271 -73 412 -237 1664 127 3350 1028 4760 561 878 1352 1657
2227 2193 828 507 1707 827 2649 966 699 103 1434 99 2120 -10 1079 -172 2077
-580 2966 -1213 717 -511 1371 -1198 1839 -1933 232 -365 442 -773 600 -1168
492 -1228 624 -2594 379 -3898 -19 -103 -23 -112 -38 -99 -181 157 -343 277
-511 380 -106 64 -312 177 -324 177 -3 0 -6 -1422 -6 -3160 0 -1738 3 -3160 6
-3160 12 0 218 113 324 177 463 283 885 708 1166 1175 264 437 421 904 486
1443 16 135 16 591 0 730 -57 479 -191 909 -406 1304 l-55 100 39 111 c133
370 262 883 334 1320 157 955 137 1967 -59 2920 -365 1774 -1322 3364 -2730
4538 -1279 1066 -2840 1693 -4535 1822 -191 15 -796 21 -980 10z"/>
<path d="M3225 6989 c-55 -5 -127 -12 -160 -16 l-60 -8 0 -3465 0 -3465 95
-13 c55 -7 265 -15 498 -18 l402 -6 0 3501 0 3501 -337 -1 c-186 -1 -383 -6
-438 -10z"/>
<path d="M12000 3500 l0 -3502 403 6 c232 3 442 11 497 18 l95 13 0 3465 0
3465 -90 13 c-53 7 -256 15 -497 19 l-408 6 0 -3503z"/>
</g>
</svg>
